<svg width="317" height="302" viewBox="0 0 317 302" fill="none" xmlns="http://www.w3.org/2000/svg">
<path d="M158.5 0C246.037 0 317 67.605 317 151C317 234.395 246.037 302 158.5 302C70.9629 302 0 234.395 0 151C0 67.605 70.9629 0 158.5 0ZM158.5 10C76.0234 10 10 73.5791 10 151C10 228.421 76.0234 292 158.5 292C240.977 292 307 228.421 307 151C307 73.5791 240.977 10 158.5 10ZM154.384 128.413L200.794 48H213.062L94.2686 254H82L148.248 139.047L95.7646 48H108.032L154.384 128.413ZM172.014 158.875L226.906 254H104.938L223.732 48H236L172.014 158.875ZM123.341 243.227L161.941 243.372H208.509L165.883 169.497L123.341 243.227Z" fill="white"/>
</svg>
